<?xml version="1.0" encoding="UTF-8" standalone="no"?>
<!-- Created with Inkscape (http://www.inkscape.org/) -->

<svg
   xmlns:dc="http://purl.org/dc/elements/1.1/"
   xmlns:cc="http://creativecommons.org/ns#"
   xmlns:rdf="http://www.w3.org/1999/02/22-rdf-syntax-ns#"
   xmlns:svg="http://www.w3.org/2000/svg"
   xmlns="http://www.w3.org/2000/svg"
   xmlns:sodipodi="http://sodipodi.sourceforge.net/DTD/sodipodi-0.dtd"
   xmlns:inkscape="http://www.inkscape.org/namespaces/inkscape"
   width="744.09448819"
   height="1052.3622047"
   id="svg2"
   version="1.1"
   inkscape:version="0.48.3.1 r9886"
   sodipodi:docname="lk.svg">
  <defs
     id="defs4" />
  <sodipodi:namedview
     id="base"
     pagecolor="#ffffff"
     bordercolor="#666666"
     borderopacity="1.0"
     inkscape:pageopacity="0.0"
     inkscape:pageshadow="2"
     inkscape:zoom="0.71"
     inkscape:cx="375"
     inkscape:cy="579.44579"
     inkscape:document-units="px"
     inkscape:current-layer="layer1"
     showgrid="false"
     inkscape:window-width="1280"
     inkscape:window-height="948"
     inkscape:window-x="0"
     inkscape:window-y="24"
     inkscape:window-maximized="1" />
  <metadata
     id="metadata7">
    <rdf:RDF>
      <cc:Work
         rdf:about="">
        <dc:format>image/svg+xml</dc:format>
        <dc:type
           rdf:resource="http://purl.org/dc/dcmitype/StillImage" />
        <dc:title></dc:title>
      </cc:Work>
    </rdf:RDF>
  </metadata>
  <g
     inkscape:label="Layer 1"
     inkscape:groupmode="layer"
     id="layer1">
    <g
       id="g3086"
       transform="translate(1.4084507,-46.478873)"
       inkscape:export-xdpi="90"
       inkscape:export-ydpi="90">
      <path
         transform="translate(-1.4084507,1.4084507)"
         d="m 422.5352,188.9819 c 0,29.5589 -19.54813,53.52113 -43.66197,53.52113 -24.11384,0 -43.66197,-23.96223 -43.66197,-53.52113 0,-29.5589 19.54813,-53.52112 43.66197,-53.52112 24.11384,0 43.66197,23.96222 43.66197,53.52112 z"
         sodipodi:ry="53.521126"
         sodipodi:rx="43.661972"
         sodipodi:cy="188.9819"
         sodipodi:cx="378.87323"
         id="path3007"
         style="opacity:0.79835391;fill:#000000;fill-opacity:1"
         sodipodi:type="arc" />
      <path
         transform="matrix(1.0161291,0,0,1,-8.2235286,101.40845)"
         sodipodi:type="arc"
         style="opacity:0.79835391;fill:#000000;fill-opacity:1"
         id="path3022"
         sodipodi:cx="378.87323"
         sodipodi:cy="188.9819"
         sodipodi:rx="43.661972"
         sodipodi:ry="53.521126"
         d="m 422.5352,188.9819 c 0,29.5589 -19.54813,53.52113 -43.66197,53.52113 -24.11384,0 -43.66197,-23.96223 -43.66197,-53.52113 0,-29.5589 19.54813,-53.52112 43.66197,-53.52112 24.11384,0 43.66197,23.96222 43.66197,53.52112 z" />
      <path
         d="m 422.5352,188.9819 c 0,29.5589 -19.54813,53.52113 -43.66197,53.52113 -24.11384,0 -43.66197,-23.96223 -43.66197,-53.52113 0,-29.5589 19.54813,-53.52112 43.66197,-53.52112 24.11384,0 43.66197,23.96222 43.66197,53.52112 z"
         sodipodi:ry="53.521126"
         sodipodi:rx="43.661972"
         sodipodi:cy="188.9819"
         sodipodi:cx="378.87323"
         id="path3024"
         style="opacity:0.79835391;fill:#000000;fill-opacity:1"
         sodipodi:type="arc"
         transform="matrix(0.34643169,0.17271084,-0.44616962,0.89494842,310.81079,144.55817)" />
      <path
         transform="matrix(0.40890876,-0.09301694,0.22180961,0.97508999,194.70673,241.35762)"
         sodipodi:type="arc"
         style="opacity:0.79835391;fill:#000000;fill-opacity:1"
         id="path3026"
         sodipodi:cx="378.87323"
         sodipodi:cy="188.9819"
         sodipodi:rx="43.661972"
         sodipodi:ry="53.521126"
         d="m 422.5352,188.9819 c 0,29.5589 -19.54813,53.52113 -43.66197,53.52113 -24.11384,0 -43.66197,-23.96223 -43.66197,-53.52113 0,-29.5589 19.54813,-53.52112 43.66197,-53.52112 24.11384,0 43.66197,23.96222 43.66197,53.52112 z" />
      <path
         transform="matrix(0.34643169,0.17271084,-0.44616962,0.89494842,278.41643,62.868029)"
         sodipodi:type="arc"
         style="opacity:0.79835391;fill:#000000;fill-opacity:1"
         id="path3040"
         sodipodi:cx="378.87323"
         sodipodi:cy="188.9819"
         sodipodi:rx="43.661972"
         sodipodi:ry="53.521126"
         d="m 422.5352,188.9819 c 0,29.5589 -19.54813,53.52113 -43.66197,53.52113 -24.11384,0 -43.66197,-23.96223 -43.66197,-53.52113 0,-29.5589 19.54813,-53.52112 43.66197,-53.52112 24.11384,0 43.66197,23.96222 43.66197,53.52112 z" />
      <path
         inkscape:transform-center-y="5.879267"
         inkscape:transform-center-x="-23.422348"
         d="m 422.5352,188.9819 c 0,29.5589 -19.54813,53.52113 -43.66197,53.52113 -24.11384,0 -43.66197,-23.96223 -43.66197,-53.52113 0,-29.5589 19.54813,-53.52112 43.66197,-53.52112 24.11384,0 43.66197,23.96222 43.66197,53.52112 z"
         sodipodi:ry="53.521126"
         sodipodi:rx="43.661972"
         sodipodi:cy="188.9819"
         sodipodi:cx="378.87323"
         id="path3042"
         style="opacity:0.79835391;fill:#000000;fill-opacity:1"
         sodipodi:type="arc"
         transform="matrix(0.28702038,0.05734258,-0.36965375,0.29713628,384.27168,354.76492)" />
      <path
         transform="matrix(0.09562787,0.27663004,-0.44324668,-0.16871942,400.51796,365.7552)"
         sodipodi:type="arc"
         style="opacity:0.79835391;fill:#000000;fill-opacity:1"
         id="path3044"
         sodipodi:cx="378.87323"
         sodipodi:cy="188.9819"
         sodipodi:rx="43.661972"
         sodipodi:ry="53.521126"
         d="m 422.5352,188.9819 c 0,29.5589 -19.54813,53.52113 -43.66197,53.52113 -24.11384,0 -43.66197,-23.96223 -43.66197,-53.52113 0,-29.5589 19.54813,-53.52112 43.66197,-53.52112 24.11384,0 43.66197,23.96222 43.66197,53.52112 z"
         inkscape:transform-center-x="-6.7685276"
         inkscape:transform-center-y="23.181009" />
      <path
         inkscape:transform-center-y="-9.8591549"
         inkscape:transform-center-x="-31.321813"
         d="m 422.5352,188.9819 c 0,29.5589 -19.54813,53.52113 -43.66197,53.52113 -24.11384,0 -43.66197,-23.96223 -43.66197,-53.52113 0,-29.5589 19.54813,-53.52112 43.66197,-53.52112 24.11384,0 43.66197,23.96222 43.66197,53.52112 z"
         sodipodi:ry="53.521126"
         sodipodi:rx="43.661972"
         sodipodi:cy="188.9819"
         sodipodi:cx="378.87323"
         id="path3046"
         style="opacity:0.79835391;fill:#000000;fill-opacity:1"
         sodipodi:type="arc"
         transform="matrix(0.33084956,-0.20095402,0.51913114,0.8546946,204.71261,216.27224)" />
      <path
         sodipodi:type="arc"
         style="opacity:0.79835391;fill:#ffffff;fill-opacity:1"
         id="path3084"
         sodipodi:cx="378.87323"
         sodipodi:cy="188.9819"
         sodipodi:rx="43.661972"
         sodipodi:ry="53.521126"
         d="m 422.5352,188.9819 c 0,29.5589 -19.54813,53.52113 -43.66197,53.52113 -24.11384,0 -43.66197,-23.96223 -43.66197,-53.52113 0,-29.5589 19.54813,-53.52112 43.66197,-53.52112 24.11384,0 43.66197,23.96222 43.66197,53.52112 z"
         transform="matrix(0.20967742,0,0,0.10526314,322.67151,157.82147)" />
    </g>
    <g
       transform="translate(-28.169014,297.1831)"
       id="g3097"
       inkscape:export-xdpi="90"
       inkscape:export-ydpi="90">
      <g
         id="g3117"
         style="fill:#803300"
         transform="matrix(-0.93536567,0,0,1,785.33384,56.775978)">
        <path
           transform="translate(-1.4084507,1.4084507)"
           d="m 422.5352,188.9819 c 0,29.5589 -19.54813,53.52113 -43.66197,53.52113 -24.11384,0 -43.66197,-23.96223 -43.66197,-53.52113 0,-29.5589 19.54813,-53.52112 43.66197,-53.52112 24.11384,0 43.66197,23.96222 43.66197,53.52112 z"
           sodipodi:ry="53.521126"
           sodipodi:rx="43.661972"
           sodipodi:cy="188.9819"
           sodipodi:cx="378.87323"
           id="path3099"
           style="opacity:0.79835391;fill:#803300;fill-opacity:1"
           sodipodi:type="arc" />
        <path
           transform="matrix(1.0161291,0,0,1,-8.2235286,101.40845)"
           sodipodi:type="arc"
           style="opacity:0.79835391;fill:#803300;fill-opacity:1"
           id="path3101"
           sodipodi:cx="378.87323"
           sodipodi:cy="188.9819"
           sodipodi:rx="43.661972"
           sodipodi:ry="53.521126"
           d="m 422.5352,188.9819 c 0,29.5589 -19.54813,53.52113 -43.66197,53.52113 -24.11384,0 -43.66197,-23.96223 -43.66197,-53.52113 0,-29.5589 19.54813,-53.52112 43.66197,-53.52112 24.11384,0 43.66197,23.96222 43.66197,53.52112 z" />
        <path
           d="m 422.5352,188.9819 c 0,29.5589 -19.54813,53.52113 -43.66197,53.52113 -24.11384,0 -43.66197,-23.96223 -43.66197,-53.52113 0,-29.5589 19.54813,-53.52112 43.66197,-53.52112 24.11384,0 43.66197,23.96222 43.66197,53.52112 z"
           sodipodi:ry="53.521126"
           sodipodi:rx="43.661972"
           sodipodi:cy="188.9819"
           sodipodi:cx="378.87323"
           id="path3103"
           style="opacity:0.79835391;fill:#803300;fill-opacity:1"
           sodipodi:type="arc"
           transform="matrix(0.34643169,0.17271084,-0.44616962,0.89494842,310.81079,144.55817)" />
        <path
           transform="matrix(0.40890876,-0.09301694,0.22180961,0.97508999,194.70673,241.35762)"
           sodipodi:type="arc"
           style="opacity:0.79835391;fill:#803300;fill-opacity:1"
           id="path3105"
           sodipodi:cx="378.87323"
           sodipodi:cy="188.9819"
           sodipodi:rx="43.661972"
           sodipodi:ry="53.521126"
           d="m 422.5352,188.9819 c 0,29.5589 -19.54813,53.52113 -43.66197,53.52113 -24.11384,0 -43.66197,-23.96223 -43.66197,-53.52113 0,-29.5589 19.54813,-53.52112 43.66197,-53.52112 24.11384,0 43.66197,23.96222 43.66197,53.52112 z" />
        <path
           transform="matrix(0.34643169,0.17271084,-0.44616962,0.89494842,278.41643,62.868029)"
           sodipodi:type="arc"
           style="opacity:0.79835391;fill:#803300;fill-opacity:1"
           id="path3107"
           sodipodi:cx="378.87323"
           sodipodi:cy="188.9819"
           sodipodi:rx="43.661972"
           sodipodi:ry="53.521126"
           d="m 422.5352,188.9819 c 0,29.5589 -19.54813,53.52113 -43.66197,53.52113 -24.11384,0 -43.66197,-23.96223 -43.66197,-53.52113 0,-29.5589 19.54813,-53.52112 43.66197,-53.52112 24.11384,0 43.66197,23.96222 43.66197,53.52112 z" />
        <path
           inkscape:transform-center-y="5.879267"
           inkscape:transform-center-x="-23.422348"
           d="m 422.5352,188.9819 c 0,29.5589 -19.54813,53.52113 -43.66197,53.52113 -24.11384,0 -43.66197,-23.96223 -43.66197,-53.52113 0,-29.5589 19.54813,-53.52112 43.66197,-53.52112 24.11384,0 43.66197,23.96222 43.66197,53.52112 z"
           sodipodi:ry="53.521126"
           sodipodi:rx="43.661972"
           sodipodi:cy="188.9819"
           sodipodi:cx="378.87323"
           id="path3109"
           style="opacity:0.79835391;fill:#803300;fill-opacity:1"
           sodipodi:type="arc"
           transform="matrix(0.28702038,0.05734258,-0.36965375,0.29713628,384.27168,354.76492)" />
        <path
           transform="matrix(0.09562787,0.27663004,-0.44324668,-0.16871942,400.51796,365.7552)"
           sodipodi:type="arc"
           style="opacity:0.79835391;fill:#803300;fill-opacity:1"
           id="path3111"
           sodipodi:cx="378.87323"
           sodipodi:cy="188.9819"
           sodipodi:rx="43.661972"
           sodipodi:ry="53.521126"
           d="m 422.5352,188.9819 c 0,29.5589 -19.54813,53.52113 -43.66197,53.52113 -24.11384,0 -43.66197,-23.96223 -43.66197,-53.52113 0,-29.5589 19.54813,-53.52112 43.66197,-53.52112 24.11384,0 43.66197,23.96222 43.66197,53.52112 z"
           inkscape:transform-center-x="-6.7685276"
           inkscape:transform-center-y="23.181009" />
        <path
           inkscape:transform-center-y="-9.8591549"
           inkscape:transform-center-x="-31.321813"
           d="m 422.5352,188.9819 c 0,29.5589 -19.54813,53.52113 -43.66197,53.52113 -24.11384,0 -43.66197,-23.96223 -43.66197,-53.52113 0,-29.5589 19.54813,-53.52112 43.66197,-53.52112 24.11384,0 43.66197,23.96222 43.66197,53.52112 z"
           sodipodi:ry="53.521126"
           sodipodi:rx="43.661972"
           sodipodi:cy="188.9819"
           sodipodi:cx="378.87323"
           id="path3113"
           style="opacity:0.79835391;fill:#803300;fill-opacity:1"
           sodipodi:type="arc"
           transform="matrix(0.33084956,-0.20095402,0.51913114,0.8546946,204.71261,216.27224)" />
        <path
           sodipodi:type="arc"
           style="opacity:0.79835391;fill:#803300;fill-opacity:1"
           id="path3115"
           sodipodi:cx="378.87323"
           sodipodi:cy="188.9819"
           sodipodi:rx="43.661972"
           sodipodi:ry="53.521126"
           d="m 422.5352,188.9819 c 0,29.5589 -19.54813,53.52113 -43.66197,53.52113 -24.11384,0 -43.66197,-23.96223 -43.66197,-53.52113 0,-29.5589 19.54813,-53.52112 43.66197,-53.52112 24.11384,0 43.66197,23.96222 43.66197,53.52112 z"
           transform="matrix(0.20967742,0,0,0.10526314,322.67151,157.82147)" />
      </g>
    </g>
  </g>
</svg>
