<?xml version="1.0" encoding="UTF-8" standalone="no"?>
<!-- Created with Inkscape (http://www.inkscape.org/) -->

<svg
   xmlns:dc="http://purl.org/dc/elements/1.1/"
   xmlns:cc="http://creativecommons.org/ns#"
   xmlns:rdf="http://www.w3.org/1999/02/22-rdf-syntax-ns#"
   xmlns:svg="http://www.w3.org/2000/svg"
   xmlns="http://www.w3.org/2000/svg"
   xmlns:sodipodi="http://sodipodi.sourceforge.net/DTD/sodipodi-0.dtd"
   xmlns:inkscape="http://www.inkscape.org/namespaces/inkscape"
   width="1332.9211"
   height="1156.0063"
   id="svg2"
   version="1.1"
   inkscape:version="0.48.1 "
   sodipodi:docname="stone.svg">
  <title
     id="title3945">Stone</title>
  <defs
     id="defs4">
    <filter
       inkscape:collect="always"
       id="filter3986"
       color-interpolation-filters="sRGB">
      <feGaussianBlur
         inkscape:collect="always"
         stdDeviation="12.898788"
         id="feGaussianBlur3988" />
    </filter>
  </defs>
  <sodipodi:namedview
     id="base"
     pagecolor="#ffffff"
     bordercolor="#666666"
     borderopacity="1.0"
     inkscape:pageopacity="0.0"
     inkscape:pageshadow="2"
     inkscape:zoom="0.30601384"
     inkscape:cx="-151.6162"
     inkscape:cy="600.32588"
     inkscape:document-units="px"
     inkscape:current-layer="layer1"
     showgrid="false"
     inkscape:window-width="1920"
     inkscape:window-height="1058"
     inkscape:window-x="1912"
     inkscape:window-y="-8"
     inkscape:window-maximized="1"
     fit-margin-top="0"
     fit-margin-left="0"
     fit-margin-right="0"
     fit-margin-bottom="0" />
  <metadata
     id="metadata7">
    <rdf:RDF>
      <cc:Work
         rdf:about="">
        <dc:format>image/svg+xml</dc:format>
        <dc:type
           rdf:resource="http://purl.org/dc/dcmitype/StillImage" />
        <dc:title>Stone</dc:title>
        <dc:date>2013</dc:date>
        <dc:creator>
          <cc:Agent>
            <dc:title>arking</dc:title>
          </cc:Agent>
        </dc:creator>
        <dc:subject>
          <rdf:Bag>
            <rdf:li>stone</rdf:li>
            <rdf:li>stein</rdf:li>
            <rdf:li>grey</rdf:li>
            <rdf:li>nature</rdf:li>
          </rdf:Bag>
        </dc:subject>
        <dc:description>stone, stein</dc:description>
      </cc:Work>
    </rdf:RDF>
  </metadata>
  <g
     inkscape:label="Ebene 1"
     inkscape:groupmode="layer"
     id="layer1"
     transform="translate(-925.8692,236.09949)">
    <path
       style="fill:#b3b3b3;stroke:#000000;stroke-width:1px;stroke-linecap:butt;stroke-linejoin:miter;stroke-opacity:1;filter:url(#filter3986)"
       d="m 1974.4941,888.44974 c -73.2474,-16.32447 -123.2059,1.66896 -196.6507,-13.92421 -76.336,-9.64428 -193.1378,-26.75625 -268.7908,-43.24214 -96.0323,-13.47328 -177.5657,-22.53216 -274.9436,-24.1993 -67.5593,4.75571 -110.9649,-33.63601 -156.0247,-70.69983 -46.5946,-46.22524 -22.8939,-67.65191 -62.1329,-118.7413 -21.20311,-39.88523 -45.42281,-81.2885 -58.62511,-125.41476 29.2979,-45.14952 93.91681,18.70797 137.22251,4.26661 56.0284,-0.43673 115.7295,14.80877 169.9904,29.70944 51.7716,0.74121 85.4267,1.79647 136.4009,6.62071 58.8352,18.03429 110.3612,55.04411 170.9731,68.30242 53.9199,33.78215 114.9791,-30.44648 175.8365,-14.29397 42.3918,13.31315 54.2999,65.44113 98.929,77.42673 41.5796,28.48497 90.4039,40.80422 136.4807,59.54629 44.2051,31.1656 38.9421,110.74217 18.2465,153.43387 -8.2324,5.31829 -17.5693,8.50888 -26.9118,11.20944 z"
       id="path3949"
       inkscape:connector-curvature="0"
       sodipodi:nodetypes="cccccccccccccccc" />
    <g
       id="g3931"
       transform="translate(1513.0035,-71.892173)">
      <path
         inkscape:connector-curvature="0"
         id="path3006-1"
         d="m 67.359622,-158.20732 c -17.279465,3.07134 -35.335321,14.06893 -33.043177,33.61239 -7.447621,16.04765 -14.719383,32.185248 -22.007739,48.220986 -10.7121526,18.637711 -22.28539,37.852723 -22.893107,60.015355 -2.733917,25.778843 -22.355612,47.702587 -19.573024,74.5607 0.0089,29.320388 0.0031,58.647319 0,87.967709 -0.737436,1.63773 -1.363974,3.3346 -1.865548,5.05925 -4.86113,23.54376 -4.805883,48.11118 -13.565165,70.86112 -9.508962,10.33353 -12.397187,24.65058 -14.102559,38.1341 -2.98688,18.28262 -4.651677,36.55719 -6.418974,54.98772 -4.171756,20.5312 -11.493908,40.30264 -15.367472,60.96397 -7.946362,18.27224 1.967137,42.03888 -12.363492,57.83355 -6.647045,22.75206 -26.470905,40.45215 -26.877365,65.10618 0.47344,8.44935 5.94917,13.45639 12.86952,17.6758 -1.58385,4.56911 -2.90725,9.30528 -4.77472,12.90109 -6.74014,17.08762 -4.201,35.73976 -4.83786,53.59648 -0.20864,3.55402 0.37682,6.35725 1.54935,8.6323 3.08827,13.07199 12.12499,30.36774 22.450519,44.04704 27.065065,22.16164 32.18533,57.94784 38.924555,90.118 2.00832,15.51044 6.205271,29.33272 11.351642,42.24474 0.672475,2.7496 1.63434,5.33113 3.162031,7.58887 7.285725,16.69694 15.86419,32.05268 22.988019,47.80991 21.132588,29.06378 67.651584,13.90394 87.461787,44.80594 19.449579,22.6027 47.500597,42.60374 78.861067,38.26058 63.8535,13.42361 129.29217,18.06354 193.13687,30.70327 55.03685,1.25409 110.10952,0.14864 165.15295,0.50593 6.9509,12.07643 45.529,10.31105 73.45394,4.64823 4.67646,1.48105 9.0768,2.7235 12.64812,3.47824 4.5252,2.48389 9.88062,2.55006 17.01173,-2.18185 17.75392,-17.65861 40.07321,-27.39696 64.82164,-30.82976 20.89339,-6.01251 43.17777,-8.96722 62.73471,-17.10664 5.19787,-24.34491 -4.04234,-49.60018 -8.88536,-73.77014 -11.10131,-23.05895 -11.86536,-49.2344 -15.74682,-74.2445 -2.30985,-24.37577 -9.33614,-47.92901 -12.55331,-71.96783 0.25094,-15.35452 4.98882,-42.31466 0.3162,-55.62018 0.0466,-0.32916 0.0498,-0.67136 0.0632,-1.04342 0.49186,-6.43658 0.0114,-12.80921 -0.79056,-19.16191 0.10443,-4.32232 -0.0139,-9.04149 -0.41101,-14.22914 -1.09998,-3.62415 -2.08006,-7.29008 -2.94064,-10.9723 -0.0911,-1.15746 -0.13862,-2.31764 -0.18982,-3.47814 -1.64224,-10.73208 -1.95368,-21.62353 -1.77074,-32.41087 -0.9818,-10.23577 -2.19905,-20.53033 -4.77462,-30.48198 -0.33988,-14.68872 -0.38784,-29.37967 -1.01185,-43.82575 -1.79816,-32.50184 9.68907,-78.42388 -27.22514,-94.51312 -34.79509,-25.78827 -17.5306,-77.82436 -21.56495,-115.22442 6.08253,-25.52199 -0.93181,-48.6484 -15.52562,-67.00345 -1.40385,-3.4344 -3.63761,-6.44051 -6.82999,-8.75882 -7.44014,-18.49905 -15.06746,-22.421 -46.41862,-30.16578 -1.58264,-1.1146 -3.12753,-2.27056 -4.64824,-3.44662 -1.23041,-18.88028 -17.84792,-31.8055 -31.11439,-46.19728 C 521.71247,84.886225 513.25077,73.342645 500.3683,59.498543 495.61716,39.939948 480.88098,25.57279 469.44353,9.823031 450.42217,-10.008208 443.22245,-40.86678 416.73252,-53.101393 c -19.39403,-6.808101 -33.82595,-24.316729 -54.54509,-27.351571 -12.25482,2.498187 -31.09193,7.251332 -39.304,-1.549395 -5.66687,-0.515639 -11.16334,-1.501242 -15.99988,-1.865599 -15.61588,-6.796424 -31.25827,-13.610486 -47.43047,-18.845712 -31.63843,-21.98356 -77.17643,-15.52167 -104.09407,-43.73089 -29.01116,-3.10786 -58.81915,-11.13364 -87.461792,-11.25683 l -0.537596,-0.50593 z"
         style="fill:#666666;stroke:#000000;stroke-width:12;stroke-miterlimit:4;stroke-opacity:1;stroke-dasharray:none" />
      <path
         sodipodi:nodetypes="ccccccccccccccccccc"
         inkscape:connector-curvature="0"
         id="path3006"
         d="m -20,140.93361 c 4.384685,20.53159 15.0445699,40.34608 11.2115589,61.94085 -0.445716,23.19688 24.0369321,56.10005 13.4106391,77.79928 -6.015183,18.31638 -15.088979,34.05209 -13.1916397,53.35617 -2.2320143,19.39562 -12.5717683,32.26505 -1.9183883,48.71266 10.68444138,19.93778 14.3523799,42.78208 17.9412009,64.79995 2.4283917,22.40152 24.1399401,44.85471 24.0527371,67.34535 1.45863,19.25839 0.32013,86.08201 -24.2158917,94.92072 -17.5874163,7.90964 -49.5747383,-30.25351 -58.7882693,-10.0054 -5.804809,12.77616 -16.014579,9.18611 -15.142669,-4.36562 -0.650171,-19.51779 7.649695,-43.02183 -7.914533,-58.84595 -9.442956,-17.40609 -39.528125,-17.73683 -40.662235,-37.98001 0.40169,-24.36545 19.996951,-41.85459 26.566228,-64.34027 14.162732,-15.60963 4.34978,-39.08652 12.203101,-57.14477 3.828202,-20.41936 11.06187,-39.95306 15.184738,-60.24381 1.746596,-18.21469 3.414436,-36.29676 6.366269,-54.36527 1.68536,-13.32561 4.527781,-27.46339 13.925307,-37.6759 8.656627,-22.48351 8.599532,-46.76784 13.403779,-70.03588 1.483062,-5.10009 4.014763,-9.90764 7.568068,-13.8721 z"
         style="fill:#666666;stroke:none" />
      <path
         inkscape:connector-curvature="0"
         id="path3008"
         d="m -85.887601,501.07719 c -15.389869,-1.47929 -16.105059,17.69748 -21.331689,27.76146 -6.66126,16.88756 -4.15772,35.33537 -4.78712,52.98286 -1.07353,18.28271 19.381331,16.53713 29.758465,25.00429 16.04506,10.06252 22.042518,28.79823 29.064316,45.31976 3.357782,15.09575 3.01691,30.88136 8.607898,45.46442 4.015988,13.8368 -0.249363,28.35169 2.657115,42.4053 3.461315,12.42863 -0.818666,30.20437 12.366293,37.55474 16.248934,6.10873 17.75345,-15.95321 26.3464023,-23.89515 C 5.8983359,742.35884 20.85058,735.72057 35.364449,738.06489 49.336329,736.10501 49.21499,716.3389 46.699868,706.22368 38.93862,696.51086 26.534987,692.03156 18.625586,682.67028 10.257752,671.10153 4.0055567,656.64611 -9.6871622,650.79961 -22.739945,646.55957 -26.103363,632.26387 -33.681071,622.35998 c -7.160267,-6.69399 -22.07438,-7.37642 -18.336389,-21.32485 0.265016,-13.04949 1.70211,-26.43865 -0.815507,-39.31549 -7.781441,-13.34707 -2.598937,-32.43264 -15.761166,-42.98561 -3.527856,-7.7151 -10.348353,-13.14614 -17.293468,-17.65684 z"
         style="fill:#666666;stroke:none" />
      <path
         sodipodi:nodetypes="ccccccccccccccc"
         inkscape:connector-curvature="0"
         id="path3004"
         d="M 83.693981,693.88285 C 70.733776,685.27826 88.2702,668.66071 85.26511,654.5979 81.57889,637.3028 66.824426,603.15153 53.032373,592.6816 c -9.403256,-7.45449 -30.22387,1.54392 -42.101245,-1.87827 -26.487803,-33.38532 -13.5003925,-18.03872 -34.34655,-18.1945 -5.736521,9.5085 -39.916986,16.67418 -40.814124,23.33982 0.192329,9.91368 5.524768,11.84244 8.224389,21.44438 1.70815,11.65544 12.814858,22.10615 17.831299,32.77968 4.337378,11.26836 11.965609,20.79644 19.310371,30.21963 4.441263,5.63516 11.2930735,8.08527 17.99039651,9.78992 9.92573839,2.43636 16.21078349,10.62429 23.88154949,16.4335 8.460393,3.6609 18.798357,5.61571 22.395886,15.41856 8.776877,16.96014 28.164838,3.32492 30.824712,-2.97977 3.816126,-6.49733 12.75725,-50.96524 20.416636,-52.43261 1.405952,-0.40711 -14.328275,27.76087 -12.951712,27.26091 z"
         style="fill:#4d4d4d;stroke:none" />
      <path
         sodipodi:nodetypes="ccccccccccccccccccc"
         inkscape:connector-curvature="0"
         id="path3002"
         d="m 388.45759,875.88285 c -14.20509,-0.85181 -17.56461,-47.11352 -33.05794,-47.35324 -12.9574,-8.60655 -26.08967,-17.85778 -38.41313,-26.99336 -8.45431,-7.90217 -39.11522,-8.24842 -49.50123,-15.55517 -14.35897,-8.24753 -28.5767,-16.73539 -41.13407,-27.57759 -11.12509,-6.68981 -25.69976,5.48404 -36.50835,-1.58496 -12.5057,-4.97962 -18.43576,-11.61584 -30.30258,-18.53393 -15.04387,-6.51864 -50.23419,-89.51992 -66.061661,-94.4344 -13.795529,-3.39866 -8.471009,55.50435 -23.892325,62.7395 -11.798319,10.15645 -24.370367,25.56672 -21.504683,39.25762 6.815848,10.41291 26.195924,28.09562 31.065223,39.52597 5.099778,15.39722 10.42134,31.12928 21.624416,43.33798 9.00417,8.66926 17.29884,18.4133 27.62939,25.59013 11.29526,9.79042 14.44,27.20677 26.5832,35.74433 14.66077,2.75019 37.53391,-3.81513 49.48316,5.34956 13.16687,5.08557 26.70206,9.55961 41.00297,8.52964 19.37998,-0.44605 38.86852,1.054 58.03798,-2.44694 15.1511,-2.69802 32.91909,4.20656 45.40729,-7.83406 18.34981,9.8419 54.18705,0.94933 39.54234,-17.76108 z"
         style="fill:#4d4d4d;stroke:none" />
      <path
         sodipodi:nodetypes="ccccccccccccccccccccc"
         inkscape:connector-curvature="0"
         id="path3012"
         d="m 554.28571,915.21933 c 25.2027,-7.35105 27.29045,40.31988 53.34457,23.03133 17.54598,-17.45179 39.61222,-27.08817 64.07074,-30.48081 20.64875,-5.94211 42.67396,-8.85023 62.00187,-16.89425 5.137,-24.05992 -4.00179,-49.026 -8.78799,-72.91288 -10.97133,-22.78898 -11.72724,-48.64919 -15.56327,-73.36634 -2.28267,-24.09028 -9.22235,-47.36049 -12.40188,-71.11783 0.36731,-22.47153 10.47558,-70.18623 -14.32686,-61.80499 -13.86854,17.6277 -23.63425,30.26631 -49.32957,34.42205 -22.66565,8.44525 -54.69693,8.31966 -78.30487,14.19368 -39.58073,13.77671 -71.08952,44.66546 -112.77246,50.61541 -22.66131,7.64577 -45.2606,16.31737 -69.20799,19.3023 -25.14086,7.14737 -49.89695,15.34552 -74.00476,25.27453 -18.43342,6.00576 -37.821,9.11913 -55.57973,17.13318 -25.53496,1.69294 8.73993,17.99548 15.14549,22.44016 18.57412,19.87666 47.53772,23.40111 68.27497,40.35925 23.745,10.02154 39.65468,31.40395 41.21085,57.23147 -0.66198,18.16621 19.05779,41.05133 31.01375,17.76744 8.4552,-16.57039 37.35939,-11.40815 49.76473,-27.28221 25.14118,-3.04886 50.45276,-3.6636 75.63317,-5.35266 26.80702,-2.70588 33.52485,13.52749 29.81924,37.44117 z"
         style="fill:#999999;stroke:none" />
      <path
         sodipodi:nodetypes="ccccccccccccccccc"
         inkscape:connector-curvature="0"
         id="path3000"
         d="m -82.857141,578.07647 c -45.560609,-25.03353 -28.798579,24.83452 -5.41736,55.81036 26.74816,21.90209 31.80994,57.25541 38.47023,89.04874 5.014179,38.72553 23.66348,66.86536 37.06016,96.49751 20.8851096,28.72335 66.84828,13.73825 86.4265,44.27835 19.22182,22.338 46.962651,42.109 77.955851,37.8167 63.1057,13.2664 127.78104,17.8405 190.878,30.3322 54.39231,1.2394 108.79937,0.1488 163.19805,0.5019 15.93569,27.68647 200.16102,-18.2056 30.65124,-15.1596 -30.77971,-17.4678 -67.58808,-12.9753 -101.27622,-18.7875 -32.43905,1.8546 -64.35522,-3.7757 -96.33652,-6.1528 -38.5384,-0.2746 -77.10349,1.1246 -115.61923,-0.7529 -26.75968,-13.7744 -64.4417,1.4365 -84.64699,-25.561 -6.14713,-30.556 -17.82876,-71.77094 -46.891459,-90.09146 C 55.328881,743.18323 44.989954,705.9239 2.1752439,680.0859 -28.148486,656.54181 -47.030121,614.72202 -70.926541,586.06931 c -3.49081,-3.30359 -7.49103,-6.11548 -11.9306,-7.99284 z"
         style="fill:#1a1a1a;stroke:none" />
      <path
         sodipodi:nodetypes="ccccccsccccccc"
         inkscape:connector-curvature="0"
         id="path3010"
         d="m 388.57143,918.07647 c 14.37963,-5.14289 21.36898,-20.46618 34.73614,-27.21412 11.91565,-9.4452 27.49119,-15.51132 42.81398,-12.7299 14.83056,0.30719 29.67,-4.02265 44.4949,-3.32695 9.21504,4.46386 25.29103,-7.06164 34.88088,-6.52183 7.30078,3.29433 42.01647,25.64898 41.18211,32.53114 19.0941,6.51691 36.90529,12.53585 36.90939,20.01841 0.004,7.48255 -12.89716,19.69655 -19.28186,22.26443 -0.37467,6.73626 -56.15205,-17.09943 -61.28142,-18.8111 -13.02255,-5.2681 -27.4391,-3.73088 -41.15672,-3.261 -21.20778,0.69044 -42.43436,-0.88423 -63.64579,-0.0279 -14.69649,3.9171 -30.67957,5.00586 -45.24066,-0.072 -1.57128,-0.77906 -3.06314,-1.72513 -4.41095,-2.8492 z"
         style="fill:#333333;stroke:none" />
      <path
         sodipodi:nodetypes="cccccccccccccccccccccccc"
         inkscape:connector-curvature="0"
         id="path3014"
         d="m 68.697698,-150.49496 c -21.210181,19.14697 -33.261934,6.30676 -24.939021,34.18549 -6.504418,48.587581 -41.6648865,87.943134 -47.3472853,136.411077 0.9813618,45.324616 -14.0058337,88.883233 -16.4690527,133.296323 14.0088849,40.73639 31.383368,83.85393 7.396254,125.0126 -6.964358,39.53505 -5.423674,80.69114 -2.503232,120.66247 28.064208,27.11799 20.3196299,67.41039 28.792396,102.52704 21.205377,34.5413 -15.1087667,71.54521 5.571413,101.38515 45.669025,10.80694 38.855261,74.50272 69.619382,94.53993 13.416258,41.8914 47.776108,31.37344 88.324308,69.12278 39.48237,23.40612 84.55661,10.02627 128.17091,11.5459 37.69424,-1.3828 63.59634,-40.15085 105.34203,-36.54613 49.71581,6.09887 76.95838,-33.83412 118.27032,-51.03933 34.0048,-26.10138 75.6772,-29.76594 116.18898,-36.24381 28.98082,-11.85801 55.27441,-14.17108 51.00773,-69.89676 -11.59609,-38.20439 -8.85342,-79.92923 -10.57336,-119.74866 -1.7771,-32.12124 9.59151,-77.5014 -26.89032,-93.40222 -34.38757,-25.48626 -17.3428,-76.90699 -21.32988,-113.86905 9.94988,-41.74856 -15.47152,-77.09098 -51.83233,-95.11592 C 533.78569,136.91585 514.02087,79.879038 476.999,39.799313 453.5873,5.9591342 434.72967,-41.308001 390.06504,-50.919977 343.85519,-56.252971 304.16772,-82.008494 260.50779,-96.141955 229.23984,-117.86807 184.23241,-111.50134 157.62998,-139.3802 c -29.51462,-3.16179 -59.864052,-11.4736 -88.932282,-11.11476 z"
         style="fill:#b3b3b3;stroke:none" />
      <path
         sodipodi:nodetypes="cccccccccccccccccc"
         inkscape:connector-curvature="0"
         id="path3047"
         d="m 323.17402,-75.689301 c -17.99749,-1.637639 -34.18202,-7.923934 -32.97153,15.980348 0.0147,19.076685 30.47993,15.096597 31.452,35.704465 15.4082,11.457736 26.68584,30.3726888 45.24997,35.939866 25.8602,-1.709432 21.27456,25.705283 25.11654,42.594033 6.34924,19.806941 21.90364,34.823691 32.57858,52.408549 14.12539,22.1365 38.50184,35.56289 50.82012,58.9477 9.73792,17.94455 13.35528,38.76255 26.55961,54.89065 4.82721,15.41472 16.10681,31.36194 34.05072,25.8728 17.95057,2.46515 48.65776,16.84599 57.0204,-6.0141 25.74304,-4.61193 41.45277,-44.08417 22.19661,-58.068 -7.70159,-19.1492 -15.54386,-22.50958 -50.38613,-30.94309 0.0439,-19.92024 -17.1946,-33.12777 -30.83477,-47.92488 C 519.68282,89.258155 511.31592,77.831679 498.58435,64.149714 493.88899,44.82017 479.34831,30.63005 468.04473,15.064736 449.24617,-4.5342453 442.10636,-35.03715 415.92671,-47.128483 396.75974,-53.85685 382.51778,-71.158286 362.0414,-74.15759 c -12.11131,2.468932 -30.75146,7.165949 -38.86738,-1.531711 z"
         style="fill:#e6e6e6;stroke:none" />
      <path
         sodipodi:nodetypes="ccccccccccccccccscc"
         inkscape:connector-curvature="0"
         id="path3074"
         d="m 70.670957,-151.00004 c -17.077195,3.03537 -34.923733,13.90438 -32.658505,33.21896 -7.360352,15.85971 -14.544266,31.795478 -21.747257,47.643419 -10.5866749,18.419442 -22.0463247,37.43023 -22.6469244,59.333308 -2.7018426,25.476942 -22.0819926,47.1326 -19.3319456,73.676171 0.01318,43.163452 -0.0086,86.326912 -6.54e-4,129.490372 -7.777511,16.09279 -3.111027,34.65655 -7.886019,51.11715 -0.642815,15.04729 -2.300443,33.83642 1.030315,46.7896 27.6022281,2.41828 26.6317146,-24.79108 30.5722115,-41.39211 C 7.5949746,233.19752 1.971897,211.88209 7.1189355,194.43608 10.095843,176.88667 13.222756,159.31075 22.935258,144.19196 30.450549,122.66347 41.012914,102.09033 55.759632,84.614483 66.410128,69.526745 69.623142,50.150081 63.172539,32.700014 58.339193,16.042405 52.266717,-0.60231593 54.285673,-18.23797 c 0.02233,-21.228519 -0.02231,-42.457044 -5e-6,-63.685562 10.002565,-12.634927 22.633471,-22.229798 37.544491,-27.757958 4.88794,-2.28688 2.899474,-11.83057 4.092655,-14.75174 1.055272,-2.58354 -5.180422,-8.12924 -14.334944,-7.54429 -12.724754,-0.39873 -24.826949,-0.58715 -8.907177,-17.0909"
         style="fill:#808080;stroke:none" />
      <path
         inkscape:connector-curvature="0"
         id="path3079"
         d="m 680,478.07647 c -12.2445,-2.53138 -22.70236,8.30106 -35.10802,5.74139 -23.53541,-0.0115 -47.07089,-0.11321 -70.60627,-0.0273 -9.05284,-6.73445 -22.27435,-2.63303 -30.53528,-11.18 -11.89766,-6.14694 -22.45182,-14.49284 -35.03895,-18.99056 -9.50084,-6.05985 -21.00343,-5.50142 -30.96393,-10.3093 -8.02746,1.3975 5.24063,12.8902 5.01413,18.19253 3.00203,9.81163 6.38668,19.27636 10.75184,28.53267 3.18688,10.12072 7.06816,20.3317 14.94842,27.79802 8.34749,10.53323 14.59992,23.04563 17.50746,36.05954 8.14367,2.18152 8.39017,14.10299 14.72203,20.44279 5.56249,7.79799 9.43268,17.22641 7.8532,26.9324 1.65141,15.33918 19.10349,10.54976 29.40436,13.07094 14.22667,2.81517 28.87956,-1.39169 42.99456,2.72488 9.51894,1.57131 19.44276,0.35509 29.03179,2.19716 8.12015,2.56029 15.96435,0.94272 24.2309,1.38939 7.30821,-0.57596 22.71863,7.79189 23.11672,-3.19779 1.21686,-15.92372 -3.60072,-31.44514 -4.29833,-47.27729 -1.62292,-10.60635 -1.92073,-21.36358 -1.73992,-32.02455 -1.30893,-13.64503 -3.06477,-27.37685 -7.92737,-40.27231 -1.55217,-6.52681 -1.39767,-13.35887 -3.35734,-19.80261 z"
         style="fill:#999999;stroke:none" />
    </g>
  </g>
</svg>
